<?xml version="1.0" standalone="no"?>
<!DOCTYPE svg PUBLIC "-//W3C//DTD SVG 20010904//EN"
 "http://www.w3.org/TR/2001/REC-SVG-20010904/DTD/svg10.dtd">
<svg version="1.0" xmlns="http://www.w3.org/2000/svg"
 width="300.000000pt" height="300.000000pt" viewBox="0 0 300.000000 300.000000"
 preserveAspectRatio="xMidYMid meet">
<metadata>
Created by potrace 1.14, written by Peter Selinger 2001-2017
</metadata>
<g transform="translate(0.000000,300.000000) scale(0.100000,-0.100000)"
fill="#000000" stroke="none">
<path d="M768 2855 c-2 -1 -25 -5 -53 -8 -205 -22 -430 -168 -549 -356 -49
-76 -101 -205 -113 -277 -16 -102 -8 -317 16 -414 71 -286 230 -501 635 -855
6 -5 34 -30 62 -55 27 -25 85 -76 129 -115 89 -78 319 -306 378 -375 21 -25
82 -102 134 -173 l96 -127 55 82 c56 83 136 188 201 263 81 93 320 324 495
480 405 359 530 509 636 760 15 33 39 113 45 142 2 16 8 49 13 74 14 73 12
247 -3 320 -55 261 -243 485 -487 579 -131 51 -284 67 -426 45 -51 -7 -173
-47 -222 -72 -102 -53 -224 -156 -282 -240 -27 -39 -34 -40 -49 -11 -7 13 -17
28 -23 35 -182 199 -364 290 -596 298 -49 1 -90 2 -92 0z"/>
</g>
</svg>
